<?xml version="1.0" encoding="utf-8"?>
<!-- Generator: Adobe Illustrator 23.0.1, SVG Export Plug-In . SVG Version: 6.00 Build 0)  -->
<svg version="1.1" id="Capa_1" xmlns="http://www.w3.org/2000/svg" xmlns:xlink="http://www.w3.org/1999/xlink" x="0px" y="0px"
	 viewBox="0 0 512 512" style="enable-background:new 0 0 512 512;" xml:space="preserve">
<style type="text/css">
	.st0{opacity:0.1;fill:#2626BC;enable-background:new    ;}
	.st1{fill:#FFFFFF;}
	.st2{fill:#FF7EB8;}
	.st3{fill:#2626BC;}
	.st4{fill:#FF5BA8;}
	.st5{fill:#02FFB3;}
	.st6{fill:#FFDBED;}
	.st7{fill:#8399FE;}
	.st8{fill:#FFA8CF;}
	.st9{fill:#01ECA5;}
</style>
<g>
	<path class="st0" d="M388.5,474.9H134.3c-5.3,0-9.6-8.8-9.6-19.8V41.2c0-10.9,4.3-19.8,9.6-19.8h254.2c5.3,0,9.6,8.8,9.6,19.8
		v413.9C398.1,466,393.8,474.9,388.5,474.9z"/>
	<path class="st1" d="M387.7,474.9H133.4c-5.3,0-9.6-8.8-9.6-19.8V41.2c0-10.9,4.3-19.8,9.6-19.8h254.2c5.3,0,9.6,8.8,9.6,19.8
		v413.9C397.2,466,392.9,474.9,387.7,474.9z"/>
	<path class="st2" d="M395.5,70.5V37.9c0-5-4.2-9-9.5-9H134c-5.2,0-9.5,4-9.5,9v32.7H395.5z"/>
	<path class="st3" d="M387.1,481.4H132.9c-7,0-12.7-11.8-12.7-26.3V41.2c0-14.5,5.7-26.3,12.7-26.3h254.2c7,0,12.7,11.8,12.7,26.3
		v413.9C399.9,469.6,394.2,481.4,387.1,481.4L387.1,481.4z M132.9,28c-3.5,0-6.4,5.9-6.4,13.2v413.9c0,7.3,2.9,13.2,6.4,13.2h254.2
		c3.5,0,6.4-5.9,6.4-13.2V41.2c0-7.3-2.9-13.2-6.4-13.2H132.9z"/>
	<g>
		<g>
			<ellipse class="st4" cx="144.1" cy="49.7" rx="7.4" ry="7.4"/>
			<ellipse class="st1" cx="167.8" cy="49.7" rx="7.4" ry="7.4"/>
			<ellipse class="st5" cx="191.5" cy="49.7" rx="7.4" ry="7.4"/>
		</g>
		<path class="st6" d="M379.9,58h-92.6V41.4h92.6c1.9,0,3.4,1.5,3.4,3.4v9.8C383.3,56.5,381.8,58,379.9,58z"/>
		<path class="st1" d="M287.8,41.6c-3.6-3.6-9.4-3.6-13,0c-3.6,3.6-3.6,9.4,0,13c2.7,2.7,6.8,3.4,10.2,1.9l3,2.9
			c1.3,1.3,3.5,1.3,4.8,0c1.3-1.3,1.3-3.5,0-4.8l-3-2.9C291.2,48.4,290.5,44.3,287.8,41.6z M279.5,46.4c0.9-0.9,2.5-0.9,3.4,0
			c0.9,0.9,0.9,2.5,0,3.4c-0.9,0.9-2.5,0.9-3.4,0C278.6,48.9,278.6,47.3,279.5,46.4z"/>
	</g>
	<g>
		<path class="st5" d="M207.7,187.6H144c-1.8,0-3.2-2.6-3.2-5.8V95.7c0-3.2,1.4-5.8,3.2-5.8h63.7c1.8,0,3.2,2.6,3.2,5.8v86.2
			C211,185,209.5,187.6,207.7,187.6z"/>
		<path class="st7" d="M292.9,187.6h-63.7c-1.8,0-3.2-2.6-3.2-5.8V95.7c0-3.2,1.4-5.8,3.2-5.8h63.7c1.8,0,3.2,2.6,3.2,5.8v86.2
			C296.1,185,294.7,187.6,292.9,187.6z"/>
		<path class="st5" d="M378,187.6h-63.7c-1.8,0-3.2-2.6-3.2-5.8V95.7c0-3.2,1.4-5.8,3.2-5.8H378c1.8,0,3.2,2.6,3.2,5.8v86.2
			C381.2,185,379.8,187.6,378,187.6z"/>
	</g>
	<path class="st7" d="M380,356.1H139.8c-1.8,0-3.3-2.7-3.3-6v-140c0-3.3,1.5-6,3.3-6H380c1.8,0,3.3,2.7,3.3,6v140
		C383.3,353.4,381.9,356.1,380,356.1L380,356.1z"/>
	<path class="st8" d="M207,209.8h-59c-1.8,0-3.3,2.5-3.3,5.6v129.5c0,3.1,1.5,5.6,3.3,5.6h59L207,209.8L207,209.8z"/>
	<g>
		<path class="st1" d="M222.8,231.3h34.5c1.8,0,3.2,2.9,3.2,6.5s-1.5,6.5-3.2,6.5h-34.5c-1.8,0-3.2-2.9-3.2-6.5
			S221,231.3,222.8,231.3z"/>
		<path class="st1" d="M358.3,231.3h11.1c1.8,0,3.2,2.9,3.2,6.5s-1.5,6.5-3.2,6.5h-11.1c-1.8,0-3.2-2.9-3.2-6.5
			S356.5,231.3,358.3,231.3z"/>
		<g>
			<path class="st1" d="M222.8,257.9h54c1.8,0,3.2,2.9,3.2,6.5c0,3.6-1.5,6.5-3.2,6.5h-54c-1.8,0-3.2-2.9-3.2-6.5
				C219.5,260.8,221,257.9,222.8,257.9L222.8,257.9z"/>
		</g>
		<path class="st1" d="M222.8,284.4h146.7c1.8,0,3.2,2.9,3.2,6.5c0,3.6-1.5,6.5-3.2,6.5H222.8c-1.8,0-3.2-2.9-3.2-6.5
			C219.5,287.3,221,284.4,222.8,284.4z"/>
		<g>
			<path class="st1" d="M222.8,310.9h146.7c1.8,0,3.2,2.9,3.2,6.5c0,3.6-1.5,6.5-3.2,6.5H222.8c-1.8,0-3.2-2.9-3.2-6.5
				C219.5,313.8,221,310.9,222.8,310.9z"/>
		</g>
		<path class="st1" d="M222.8,350.4c-1.8,0-3.2-2.9-3.2-6.5c0-3.6,1.5-6.5,3.2-6.5h146.7c1.8,0,3.2,2.9,3.2,6.5
			c0,3.6-1.5,6.5-3.2,6.5"/>
	</g>
	<path class="st9" d="M363.9,442.3c-7.9,0-14.4-7.1-14.4-15.8c0-8.7,6.4-15.8,14.4-15.8c7.9,0,14.4,7.1,14.4,15.8
		C378.2,435.2,371.8,442.3,363.9,442.3L363.9,442.3z M363.9,421.7c-2.4,0-4.3,2.1-4.3,4.7c0,2.6,1.9,4.7,4.3,4.7s4.3-2.1,4.3-4.7
		C368.2,423.9,366.2,421.7,363.9,421.7z"/>
</g>
</svg>
