<svg viewBox="0 -20 512.001 512" xmlns="http://www.w3.org/2000/svg"><path d="m469.917969 0h-427.835938c-23.203125 0-42.082031 18.878906-42.082031 42.085938v315.832031c0 23.203125 18.878906 42.082031 42.082031 42.082031h124.636719l-8.808594 51h-22.078125c-5.523437 0-10 4.476562-10 10s4.476563 10 10 10h240c5.523438 0 10-4.476562 10-10s-4.476562-10-10-10h-22.078125l-8.804687-51h124.96875c23.203125 0 42.082031-18.878906 42.082031-42.082031v-315.832031c0-23.207032-18.878906-42.085938-42.082031-42.085938zm-427.835938 20h427.832031c12.179688 0 22.085938 9.90625 22.085938 22.085938v277.914062h-472v-277.914062c0-12.179688 9.90625-22.085938 22.082031-22.085938zm291.375 431h-155.25l8.808594-51h137.636719zm136.460938-71h-427.835938c-12.175781 0-22.082031-9.90625-22.082031-22.082031v-17.917969h472v17.917969c0 12.175781-9.90625 22.082031-22.082031 22.082031zm0 0"/><path d="m265.0625 355.859375c-.25-.597656-.558594-1.179687-.917969-1.730469-.359375-.539062-.78125-1.058594-1.242187-1.519531-.460938-.457031-.96875-.878906-1.519532-1.238281-.539062-.359375-1.121093-.671875-1.730468-.921875-.597656-.25-1.226563-.4375-1.867188-.570313-1.28125-.257812-2.609375-.257812-3.902344 0-.640624.132813-1.269531.320313-1.867187.570313-.613281.25-1.191406.5625-1.730469.921875-.550781.359375-1.0625.78125-1.519531 1.238281-.460937.460937-.882813.980469-1.242187 1.519531-.359376.550782-.667969 1.132813-.917969 1.730469-.25.601563-.453125 1.230469-.570313 1.871094-.132812.648437-.199218 1.300781-.199218 1.960937 0 .648438.066406 1.300782.199218 1.949219.117188.640625.320313 1.269531.570313 1.871094.25.597656.558593 1.179687.917969 1.71875.359374.550781.78125 1.058593 1.242187 1.53125.457031.457031.96875.867187 1.519531 1.238281.539063.359375 1.117188.671875 1.730469.921875.597656.25 1.226563.4375 1.867187.570313.640626.128906 1.300782.1875 1.953126.1875.648437 0 1.308593-.058594 1.949218-.1875.640625-.132813 1.269532-.320313 1.867188-.570313.609375-.25 1.191406-.5625 1.730468-.921875.550782-.371094 1.058594-.78125 1.519532-1.238281.460937-.472657.882812-.980469 1.242187-1.53125.359375-.539063.667969-1.121094.917969-1.71875.25-.601563.449219-1.230469.570312-1.871094.128907-.648437.199219-1.300781.199219-1.949219 0-.660156-.070312-1.3125-.199219-1.960937-.121093-.640625-.320312-1.269531-.570312-1.871094zm0 0"/><path d="m56.71875 300h397.238281c9.074219 0 16.457031-7.382812 16.457031-16.457031v-227.074219c0-9.082031-7.386718-16.46875-16.46875-16.46875h-285.390624c-5.523438 0-10 4.476562-10 10s4.476562 10 10 10h281.859374v217.773438l-130.332031-173.773438c-1.886719-2.515625-4.851562-4-8-4-3.144531 0-6.109375 1.484375-8 4l-82 109.335938-48.25-64.335938c-1.886719-2.515625-4.851562-4-8-4-3.144531 0-6.109375 1.484375-8 4l-97.578125 130.109375v-219.109375h28.300782c5.523437 0 10-4.476562 10-10s-4.476563-10-10-10h-31.84375c-9.074219 0-16.457032 7.382812-16.457032 16.457031v227.078125c0 9.078125 7.386719 16.464844 16.464844 16.464844zm155.175781-39.75h73.941407c5.519531 0 10-4.476562 10-10s-4.480469-10-10-10h-58.941407l3.230469-4.304688c.03125-.042968.066406-.085937.09375-.125l11.488281-15.320312h47.875c5.523438 0 10-4.476562 10-10s-4.476562-10-10-10h-32.875l15-20h80.75l74.625 99.5h-230zm100.1875-133.582031 25.378907 33.832031h-50.75zm-146.25 45 43.75 58.335937-37.5 49.996094h-87.5l44.625-59.5h25.375c5.523438 0 10-4.476562 10-10s-4.476562-10-10-10h-10.375zm0 0"/><path d="m259.832031 120c0-22.054688-17.941406-40-40-40-22.054687 0-40 17.945312-40 40s17.945313 40 40 40c22.058594 0 40-17.945312 40-40zm-60 0c0-11.027344 8.972657-20 20-20 11.027344 0 20 8.972656 20 20s-8.972656 20-20 20c-11.027343 0-20-8.972656-20-20zm0 0"/><path d="m118.992188 53.621094c.25.597656.5625 1.179687.921874 1.730468.359376.539063.777344 1.050782 1.238282 1.519532.460937.460937.96875.871094 1.519531 1.238281.542969.359375 1.121094.671875 1.730469.921875.601562.25 1.230468.4375 1.871094.570312.640624.128907 1.300781.199219 1.949218.199219.648438 0 1.308594-.070312 1.949219-.199219.640625-.132812 1.269531-.320312 1.871094-.570312.609375-.25 1.191406-.5625 1.730469-.921875.550781-.359375 1.058593-.777344 1.519531-1.238281.460937-.46875.878906-.980469 1.238281-1.519532.363281-.550781.671875-1.132812.921875-1.730468.25-.601563.449219-1.230469.578125-1.871094.132812-.648438.191406-1.300781.191406-1.949219 0-.660156-.058594-1.308593-.191406-1.960937-.128906-.640625-.328125-1.269532-.578125-1.871094-.25-.597656-.558594-1.179688-.921875-1.726562-.359375-.542969-.777344-1.050782-1.238281-1.523438-.460938-.457031-.96875-.867188-1.519531-1.238281-.539063-.359375-1.121094-.671875-1.730469-.921875-.601563-.25-1.230469-.4375-1.871094-.566406-1.277344-.261719-2.609375-.261719-3.898437 0-.640626.128906-1.269532.316406-1.871094.566406-.609375.25-1.1875.5625-1.730469.921875-.550781.371093-1.058594.78125-1.519531 1.238281-.460938.472656-.878906.980469-1.238282 1.523438-.359374.546874-.671874 1.128906-.921874 1.726562-.25.601562-.449219 1.230469-.570313 1.871094-.128906.652344-.199219 1.300781-.199219 1.960937 0 .648438.070313 1.300781.199219 1.949219.121094.640625.320313 1.269531.570313 1.871094zm0 0"/></svg>