<svg id="Layer_1" data-name="Layer 1" xmlns="http://www.w3.org/2000/svg" viewBox="0 0 581.28 62.55"><defs><style>.cls-1{fill:none;stroke:#fff;stroke-miterlimit:10;}</style></defs><title>typing</title><path class="cls-1" d="M32.4,349q-3.24,10.89-7,15.72t-9.07,4.82a8,8,0,0,1-5.87-2.12,7.83,7.83,0,0,1-2.13-5.82q0-5.9,5.08-10.59a24.5,24.5,0,0,1,13.05-6c.86-2.37,1.69-4.8,2.47-7.29s1.53-5.05,2.24-7.66a34.64,34.64,0,0,0-4.11-.91,24.43,24.43,0,0,0-3.78-.29,8.21,8.21,0,0,0-4.15.88,3.44,3.44,0,0,0-1.76,2.53l-.27.06-.26,0a1.68,1.68,0,0,1-1.4-.62,2.82,2.82,0,0,1-.49-1.8q0-2.94,3.18-4.84a16.18,16.18,0,0,1,8.33-1.9,38.17,38.17,0,0,1,6.95.59,27.57,27.57,0,0,1,6,1.86q-1.44,5.63-2.75,10.14c-.88,3-1.71,5.68-2.52,8l1.68,0h4l1.69,0q3.39-9.91,6.86-15.18T55,323.35a4,4,0,0,1,3,1.13,4.11,4.11,0,0,1,1.12,3,5.09,5.09,0,0,1-1.51,3.95,6.88,6.88,0,0,1-4.46,1.5q-4.21,11-6.2,17.69c-1.32,4.47-2,7.77-2,9.89a4.7,4.7,0,0,0,1.27,3.66,6.56,6.56,0,0,0,4.15,1.25l-1.15,3.95h-.65q-6.06,0-8.69-1.86t-2.64-6.09a25.53,25.53,0,0,1,.61-4.7q.6-3,1.92-8l-.41,0q-2.21-.09-3.15-.09-.49,0-2.94.21Zm-7.78,1.5A21,21,0,0,0,16.87,355q-2.93,2.87-2.93,5.68a2.87,2.87,0,0,0,.63,2,2.18,2.18,0,0,0,1.72.72q2.28,0,4.39-3.3A37.29,37.29,0,0,0,24.62,350.46Z" transform="translate(-7.79 -322.41)"/><path class="cls-1" d="M74.72,358.73a29.53,29.53,0,0,1-6.24,8.18,10.12,10.12,0,0,1-6.62,2.59,8.15,8.15,0,0,1-2.93-.47,4.31,4.31,0,0,1-2-1.38,13,13,0,0,1-3.35,1.22,24.51,24.51,0,0,1-4.42.52l1.18-4a15.11,15.11,0,0,0,2.9-.41,9.51,9.51,0,0,0,2.31-.91,12.72,12.72,0,0,1-.18-1.28c0-.44-.06-.92-.06-1.43A15.79,15.79,0,0,1,56.41,356a25.74,25.74,0,0,1,3-5.7,22.56,22.56,0,0,1,6.52-6.46,13.83,13.83,0,0,1,7.4-2.22,8.81,8.81,0,0,1,3.29.56A7.81,7.81,0,0,1,79.22,344l.42-1.32a3.5,3.5,0,0,1,.76-1.53,1.68,1.68,0,0,1,1.12-.33,8.52,8.52,0,0,1,3.55.7c1,.46,1.51,1,1.51,1.63a15.66,15.66,0,0,1-1.26,2.77c-.85,1.64-1.59,3.22-2.24,4.71a78.76,78.76,0,0,0-2.93,7.6,17.72,17.72,0,0,0-1,4.88,1.76,1.76,0,0,0,.73,1.63,9.43,9.43,0,0,0,3.36.69l-1.15,3.95h-.53q-4.62,0-6.51-1a3.4,3.4,0,0,1-1.88-3.29,11.65,11.65,0,0,1,.35-2.53C73.78,361.59,74.17,360.3,74.72,358.73Zm3-11.16a6.23,6.23,0,0,0-1.57-.91,4.59,4.59,0,0,0-1.58-.29,7.47,7.47,0,0,0-4,1.5A19.11,19.11,0,0,0,66.27,352a21.15,21.15,0,0,0-3,5.05,12.39,12.39,0,0,0-1.11,4.66,3.69,3.69,0,0,0,.5,2.14,1.78,1.78,0,0,0,1.53.69q2.9,0,6.33-4.3A59.45,59.45,0,0,0,77.72,347.57Z" transform="translate(-7.79 -322.41)"/><path class="cls-1" d="M93.18,367.53A108,108,0,0,0,89.73,380c-.12.59-.21,1-.29,1.36a2.86,2.86,0,0,1-1.46,2.1,9.61,9.61,0,0,1-3.84.54,2.57,2.57,0,0,1-1.27-.28.8.8,0,0,1-.5-.69,30.08,30.08,0,0,1,1.81-6.19q1.81-5.08,2.9-8.88a8.32,8.32,0,0,1-2.23,1,12.15,12.15,0,0,1-2.74.45l1.12-4q5.76-.41,9-15.07l.15-.7c.31-1.38.67-3.12,1.06-5.24q1.44-7.57,5.53-7.57a4.59,4.59,0,0,1,2,.33,1.05,1.05,0,0,1,.63,1,48.3,48.3,0,0,1-2,6.68c-1.06,3.24-1.93,5.93-2.62,8.09q3.77-6.45,6.58-9a8.74,8.74,0,0,1,6-2.57,6.55,6.55,0,0,1,5,2.14,7.78,7.78,0,0,1,2,5.52,16,16,0,0,1-2.18,7.81,28.55,28.55,0,0,1-6.33,7.55,13.19,13.19,0,0,0,3,.78,23.48,23.48,0,0,0,3.6.25l-1.15,4h-.76a18.53,18.53,0,0,1-4.47-.51,13.52,13.52,0,0,1-3.8-1.53,16.49,16.49,0,0,1-3.18,1.2,13,13,0,0,1-3.21.42,8.16,8.16,0,0,1-2.44-.37A11.48,11.48,0,0,1,93.18,367.53ZM95,362.94a12.39,12.39,0,0,1,2.31-.82,9.14,9.14,0,0,1,2.17-.27,9.38,9.38,0,0,1,2,.22,16,16,0,0,1,2.28.69,21.6,21.6,0,0,0,4.7-5.91,13,13,0,0,0,1.72-6.07,4.85,4.85,0,0,0-.8-2.93,2.55,2.55,0,0,0-2.17-1.07q-2.72,0-6,4.4A47,47,0,0,0,95,362.94Z" transform="translate(-7.79 -322.41)"/><path class="cls-1" d="M124.58,367.53A106.29,106.29,0,0,0,121.14,380c-.12.59-.22,1-.3,1.36a2.85,2.85,0,0,1-1.45,2.1,9.61,9.61,0,0,1-3.84.54,2.54,2.54,0,0,1-1.27-.28.8.8,0,0,1-.5-.69,29.39,29.39,0,0,1,1.81-6.19c1.21-3.39,2.17-6.35,2.9-8.88a8.38,8.38,0,0,1-2.24,1,12,12,0,0,1-2.74.45l1.12-4q5.78-.41,9-15.07l.15-.7c.31-1.38.66-3.12,1.06-5.24q1.44-7.57,5.53-7.57a4.65,4.65,0,0,1,2,.33,1.05,1.05,0,0,1,.63,1,50,50,0,0,1-2,6.68c-1.06,3.24-1.94,5.93-2.62,8.09q3.76-6.45,6.58-9a8.74,8.74,0,0,1,6-2.57,6.57,6.57,0,0,1,5,2.14,7.82,7.82,0,0,1,2,5.52,16,16,0,0,1-2.18,7.81,28.5,28.5,0,0,1-6.32,7.55,13.1,13.1,0,0,0,3,.78,23.52,23.52,0,0,0,3.61.25l-1.15,4h-.76a18.62,18.62,0,0,1-4.48-.51,13.64,13.64,0,0,1-3.8-1.53,16.66,16.66,0,0,1-3.17,1.2,13,13,0,0,1-3.21.42,8.23,8.23,0,0,1-2.45-.37A11.94,11.94,0,0,1,124.58,367.53Zm1.8-4.59a11.91,11.91,0,0,1,2.31-.82,9,9,0,0,1,2.16-.27,9.47,9.47,0,0,1,2,.22,16.77,16.77,0,0,1,2.28.69,21.38,21.38,0,0,0,4.69-5.91,13,13,0,0,0,1.73-6.07,4.85,4.85,0,0,0-.8-2.93,2.58,2.58,0,0,0-2.18-1.07q-2.7,0-6.05,4.4A47.34,47.34,0,0,0,126.38,362.94Z" transform="translate(-7.79 -322.41)"/><path class="cls-1" d="M153.63,367a29.31,29.31,0,0,1-4.44,1.65,20.36,20.36,0,0,1-4.27.74l1.15-4a14.22,14.22,0,0,0,3.37-.56,14.66,14.66,0,0,0,3.16-1.35,31.1,31.1,0,0,1,.8-6.11,64.77,64.77,0,0,1,2.35-7.75,45.15,45.15,0,0,1,3-6.89q1-1.56,2-1.56a8.69,8.69,0,0,1,3.48.54,1.77,1.77,0,0,1,1.18,1.64,12.73,12.73,0,0,1-1.27,3.28q-1.26,2.66-1.94,4.31a53,53,0,0,0-2.24,6.23,16.54,16.54,0,0,0-.65,4.25,2.61,2.61,0,0,0,.46,1.68,1.7,1.7,0,0,0,1.4.56q2.18,0,5-3.27a35,35,0,0,0,5.19-8.68,53.78,53.78,0,0,0,2.3-6.3q1.17-3.94,2.94-3.95a6.71,6.71,0,0,1,3,.63c.85.43,1.27,1,1.27,1.61a7.47,7.47,0,0,1-.71,2.21c-.35.8-.62,1.45-.79,1.94l-6.66,18.34a53,53,0,0,1,5.54-.74l.56-.06-1.15,4c-1.83.17-3.21.34-4.17.51a24.47,24.47,0,0,0-2.51.57q-2,7.09-4.52,10.54t-5.67,3.45a3.28,3.28,0,0,1-2.34-.77,2.94,2.94,0,0,1-.81-2.24,8.74,8.74,0,0,1,2.11-5.41,14.82,14.82,0,0,1,5.64-4.3c1-2.37,1.85-4.66,2.67-6.84s1.6-4.33,2.33-6.41a31,31,0,0,1-6.12,8.36,9.41,9.41,0,0,1-6.3,2.65,5.37,5.37,0,0,1-2.71-.7A3.56,3.56,0,0,1,153.63,367Z" transform="translate(-7.79 -322.41)"/><path class="cls-1" d="M236.49,338.89Q233,352.56,225.88,361t-14.65,8.47a8.07,8.07,0,0,1-6.77-3.07c-1.58-2.05-2.38-5-2.38-8.79A52.45,52.45,0,0,1,204.14,344a64.29,64.29,0,0,1,5.53-13.91,28,28,0,0,1,3.67-5.71,4,4,0,0,1,2.9-1.15,10.1,10.1,0,0,1,3.62.55c.92.36,1.38.84,1.38,1.43,0,.39-.63,1.56-1.9,3.51s-2.34,3.8-3.22,5.52a72.73,72.73,0,0,0-4.94,12.35A37.76,37.76,0,0,0,209.44,357a5.94,5.94,0,0,0,1,3.71,3.47,3.47,0,0,0,2.9,1.3q5,0,10.2-7.49t8.11-19.33a17.12,17.12,0,0,1-2-3.53,8,8,0,0,1-.55-3,5.59,5.59,0,0,1,1.38-3.89,4.47,4.47,0,0,1,3.45-1.53,3.52,3.52,0,0,1,3.13,1.7,8.73,8.73,0,0,1,1.11,4.81A17.36,17.36,0,0,1,238,332a13.07,13.07,0,0,1-.42,2c.55.33,1.16.67,1.84,1s1.4.71,2.19,1.09l-1.85,4.2-1.42-.6C237.58,339.41,237,339.13,236.49,338.89Z" transform="translate(-7.79 -322.41)"/><path class="cls-1" d="M256.62,358.73a29.53,29.53,0,0,1-6.24,8.18,10.12,10.12,0,0,1-6.62,2.59,8.15,8.15,0,0,1-2.93-.47,4.31,4.31,0,0,1-2-1.38,13,13,0,0,1-3.35,1.22,24.51,24.51,0,0,1-4.42.52l1.18-4a15.11,15.11,0,0,0,2.9-.41,9.51,9.51,0,0,0,2.31-.91,12.72,12.72,0,0,1-.18-1.28c0-.44-.06-.92-.06-1.43a15.79,15.79,0,0,1,1.06-5.34,25.74,25.74,0,0,1,3-5.7,22.56,22.56,0,0,1,6.52-6.46,13.83,13.83,0,0,1,7.4-2.22,8.81,8.81,0,0,1,3.29.56,7.81,7.81,0,0,1,2.62,1.79l.42-1.32a3.5,3.5,0,0,1,.76-1.53,1.68,1.68,0,0,1,1.12-.33,8.52,8.52,0,0,1,3.55.7c1,.46,1.51,1,1.51,1.63a15.66,15.66,0,0,1-1.26,2.77c-.85,1.64-1.59,3.22-2.24,4.71a78.76,78.76,0,0,0-2.93,7.6,17.72,17.72,0,0,0-1,4.88,1.76,1.76,0,0,0,.73,1.63,9.43,9.43,0,0,0,3.36.69L264,369.39h-.53q-4.62,0-6.51-1a3.4,3.4,0,0,1-1.88-3.29,11.65,11.65,0,0,1,.35-2.53C255.68,361.59,256.07,360.3,256.62,358.73Zm3-11.16a6.23,6.23,0,0,0-1.57-.91,4.59,4.59,0,0,0-1.58-.29,7.47,7.47,0,0,0-4,1.5,19.11,19.11,0,0,0-4.32,4.09,21.15,21.15,0,0,0-3,5.05,12.39,12.39,0,0,0-1.11,4.66,3.69,3.69,0,0,0,.5,2.14,1.78,1.78,0,0,0,1.53.69q2.89,0,6.33-4.3A59.45,59.45,0,0,0,259.62,347.57Z" transform="translate(-7.79 -322.41)"/><path class="cls-1" d="M264,369.39l1.12-4a7.09,7.09,0,0,0,3.26-.9,19.18,19.18,0,0,0,3.92-2.84q1-6.68,2.69-13.79t4.05-14.05a29.53,29.53,0,0,1,3.63-7.93,4.89,4.89,0,0,1,3.9-2.2,3,3,0,0,1,2.43,1.18,4.66,4.66,0,0,1,1,3,14.2,14.2,0,0,1-1.72,5.85,38.26,38.26,0,0,1-4.67,7.19q-2.26,7.28-3.63,13.36a46.67,46.67,0,0,0-1.37,8.1,3,3,0,0,0,.79,2.3,4,4,0,0,0,2.65.7l-1.15,4h-.67a11.28,11.28,0,0,1-5.12-.95,4.42,4.42,0,0,1-2.36-2.91,15,15,0,0,1-4.15,2.77A13,13,0,0,1,264,369.39Z" transform="translate(-7.79 -322.41)"/><path class="cls-1" d="M292.38,366.44a31.88,31.88,0,0,1-5.72,2.09,27.94,27.94,0,0,1-5.79.86l1.18-4a22.77,22.77,0,0,0,3.75-.56,18.47,18.47,0,0,0,3.34-1.12,10,10,0,0,1-1.64-3.35A16.18,16.18,0,0,1,287,356a14.66,14.66,0,0,1,4-10.24,12.54,12.54,0,0,1,9.5-4.36,6.45,6.45,0,0,1,4.84,1.84,6.91,6.91,0,0,1,1.78,5,15.05,15.05,0,0,1-2.55,7.67,26.48,26.48,0,0,1-6.78,7.4,7.37,7.37,0,0,0,2.69,1.64,11.57,11.57,0,0,0,3.58.48h.41l-1.15,4h-.79a21,21,0,0,1-5.8-.73A11.93,11.93,0,0,1,292.38,366.44Zm3-6.21a16.92,16.92,0,0,0,5.16-5.4,11.83,11.83,0,0,0,2.09-5.93A2.75,2.75,0,0,0,302,347a2.34,2.34,0,0,0-1.8-.66q-2.44,0-4.33,2.87a11.9,11.9,0,0,0-1.88,6.67,8.58,8.58,0,0,0,.32,2.48A5.33,5.33,0,0,0,295.41,360.23Z" transform="translate(-7.79 -322.41)"/><path class="cls-1" d="M310.22,366.5a9.09,9.09,0,0,1-3,2.05,11.75,11.75,0,0,1-3.9.84l1.12-4a6.76,6.76,0,0,0,5.24-2.9q2.14-2.77,3.91-9c.57-2,1.16-4.34,1.77-7.06.79-3.65,2-5.48,3.74-5.48a13.93,13.93,0,0,1,3.3.27c.64.17,1,.49,1,.94a35,35,0,0,1-1.83,5c-1.22,3-2.29,5.95-3.24,8.77a50.58,50.58,0,0,1,8.41-10.87c2.54-2.29,5-3.43,7.46-3.43a4,4,0,0,1,2.88,1,3.64,3.64,0,0,1,1,2.76q0,2-3.41,10.44l-.74,1.86a29.18,29.18,0,0,0-1.16,3.34,10,10,0,0,0-.43,2.19,1.58,1.58,0,0,0,.83,1.53,9,9,0,0,0,3.27.59l-1.12,4h-.68c-3.22,0-5.58-.44-7.08-1.3a4.35,4.35,0,0,1-2.25-4.06,14.12,14.12,0,0,1,.85-3.89q.86-2.61,2.59-6.68l.24-.56a18.25,18.25,0,0,0,1.5-4,1,1,0,0,0-.25-.74,1.15,1.15,0,0,0-.78-.23q-1.74,0-5.37,4.41a44.69,44.69,0,0,0-6.37,10.72c-.38.84-.78,1.87-1.21,3.09a4.74,4.74,0,0,1-4.83,3.35,4.28,4.28,0,0,1-1.65-.22.78.78,0,0,1-.47-.78,3,3,0,0,1,.16-.78A10.93,10.93,0,0,1,310.22,366.5Z" transform="translate(-7.79 -322.41)"/><path class="cls-1" d="M335.3,369.39l1.12-4a7.9,7.9,0,0,0,5.13-2.22q1.84-1.9,3.25-6.93l2.48-8.74h-2.86a1.64,1.64,0,0,1-.88-.17.62.62,0,0,1-.24-.57,1,1,0,0,1,0-.15,2.72,2.72,0,0,1,.1-.35l.47-1.41a1.19,1.19,0,0,1,.61-.77,4.45,4.45,0,0,1,1.69-.2h2.18l2.88-9.54c.16-.51.34-1.22.56-2.12.61-2.55,1.82-3.83,3.65-3.83a7.71,7.71,0,0,1,3,.49,1.51,1.51,0,0,1,1.09,1.37,7.79,7.79,0,0,1-.68,2.26c-.23.59-.41,1.06-.53,1.42L355,343.9h4.94a1.8,1.8,0,0,1,.86.16.55.55,0,0,1,.29.51,2.26,2.26,0,0,1,0,.27,1.89,1.89,0,0,1-.05.23l-.5,1.42a1.27,1.27,0,0,1-.65.79,3.93,3.93,0,0,1-1.64.24H353.9L351,357c-.33,1.06-.57,2-.73,2.75a9.87,9.87,0,0,0-.24,1.9,2.9,2.9,0,0,0,1.59,2.62,10.69,10.69,0,0,0,4.74,1.12l-1.15,4h-.7a20.06,20.06,0,0,1-6.57-.93,7.28,7.28,0,0,1-3.82-2.7,15.49,15.49,0,0,1-4.17,2.57A14.15,14.15,0,0,1,335.3,369.39Z" transform="translate(-7.79 -322.41)"/><path class="cls-1" d="M355.25,369.39l1.12-4c2.32-.08,4.29-1.36,5.93-3.84s3.19-6.57,4.64-12.26c.21-.9.47-2.05.76-3.44.59-3,2.52-4.45,5.8-4.45a3.69,3.69,0,0,1,1.75.34,1.08,1.08,0,0,1,.61,1,12,12,0,0,1-1,3.44c-.68,1.71-1.16,3-1.46,4l-2.82,8.53-.12.35a16.74,16.74,0,0,0-1.06,4,1.83,1.83,0,0,0,.83,1.72,8.7,8.7,0,0,0,3.38.63l-1.12,4h-1a12.7,12.7,0,0,1-5.69-1,4.09,4.09,0,0,1-2.25-3.17,12.19,12.19,0,0,1-3.76,3A11,11,0,0,1,355.25,369.39Zm19.87-36.94a3.53,3.53,0,0,1-2.63-.93,3.57,3.57,0,0,1-.93-2.64,5.36,5.36,0,0,1,1.37-3.72,4.25,4.25,0,0,1,3.28-1.51,3.5,3.5,0,0,1,2.59,1,3.56,3.56,0,0,1,1,2.64,5.18,5.18,0,0,1-1.35,3.65A4.37,4.37,0,0,1,375.12,332.45Z" transform="translate(-7.79 -322.41)"/><path class="cls-1" d="M379.42,366.5a9.19,9.19,0,0,1-3,2.05,11.75,11.75,0,0,1-3.9.84l1.12-4a6.76,6.76,0,0,0,5.24-2.9q2.14-2.77,3.91-9c.57-2,1.16-4.34,1.77-7.06q1.17-5.48,3.74-5.48a13.77,13.77,0,0,1,3.29.27c.65.17,1,.49,1,.94a35,35,0,0,1-1.83,5q-1.83,4.53-3.24,8.77,4.59-7.44,8.41-10.87c2.54-2.29,5-3.43,7.46-3.43a4,4,0,0,1,2.88,1,3.64,3.64,0,0,1,1,2.76q0,2-3.41,10.44l-.74,1.86A29.18,29.18,0,0,0,402,361.1a10,10,0,0,0-.43,2.19,1.58,1.58,0,0,0,.83,1.53,9,9,0,0,0,3.26.59l-1.11,4h-.68c-3.22,0-5.58-.44-7.08-1.3a4.35,4.35,0,0,1-2.25-4.06,14.12,14.12,0,0,1,.85-3.89q.86-2.61,2.59-6.68l.24-.56a18.25,18.25,0,0,0,1.5-4,1,1,0,0,0-.25-.74,1.15,1.15,0,0,0-.78-.23q-1.74,0-5.37,4.41a45,45,0,0,0-6.38,10.72q-.56,1.26-1.2,3.09a4.74,4.74,0,0,1-4.83,3.35,4.28,4.28,0,0,1-1.65-.22.78.78,0,0,1-.47-.78,2.61,2.61,0,0,1,.16-.78A10.93,10.93,0,0,1,379.42,366.5Z" transform="translate(-7.79 -322.41)"/><path class="cls-1" d="M416,366.44a31.88,31.88,0,0,1-5.72,2.09,27.84,27.84,0,0,1-5.78.86l1.17-4a23.06,23.06,0,0,0,3.76-.56,19,19,0,0,0,3.34-1.12,9.81,9.81,0,0,1-1.65-3.35,16.18,16.18,0,0,1-.53-4.42,14.62,14.62,0,0,1,4-10.24,12.51,12.51,0,0,1,9.49-4.36,6.45,6.45,0,0,1,4.84,1.84,6.91,6.91,0,0,1,1.78,5,15.05,15.05,0,0,1-2.55,7.67,26.33,26.33,0,0,1-6.78,7.4,7.37,7.37,0,0,0,2.69,1.64,11.57,11.57,0,0,0,3.58.48h.41l-1.15,4h-.79a21,21,0,0,1-5.8-.73A11.93,11.93,0,0,1,416,366.44Zm3-6.21a16.89,16.89,0,0,0,5.15-5.4,11.83,11.83,0,0,0,2.09-5.93,2.75,2.75,0,0,0-.62-1.93,2.34,2.34,0,0,0-1.8-.66q-2.44,0-4.32,2.87a11.83,11.83,0,0,0-1.89,6.67,8.23,8.23,0,0,0,.33,2.48A5,5,0,0,0,419,360.23Z" transform="translate(-7.79 -322.41)"/><path class="cls-1" d="M426.92,369.39l1.12-4c1.89-.23,4.34-2,7.38-5.34a82.29,82.29,0,0,0,9.46-13.29,3.55,3.55,0,0,1-.84-1.28,4.63,4.63,0,0,1-.25-1.6,5.22,5.22,0,0,1,1.77-3.95,6,6,0,0,1,4.23-1.65,3.36,3.36,0,0,1,2.34.78,2.69,2.69,0,0,1,.87,2.11,4.94,4.94,0,0,1-.73,2.5,9.78,9.78,0,0,1-2.21,2.5,23.1,23.1,0,0,1,3.74,5.31,11.66,11.66,0,0,1,1.15,5,13.18,13.18,0,0,1-.81,4.52,10.76,10.76,0,0,1-2.23,3.7,5.72,5.72,0,0,0,1.56.52,10.82,10.82,0,0,0,2.12.18h.62l-1.15,4h-.85a14.59,14.59,0,0,1-6.15-1.33,20.77,20.77,0,0,1-3.46,1.09,14.67,14.67,0,0,1-3.11.35,12.59,12.59,0,0,1-4.35-.75,9.46,9.46,0,0,1-3.42-2.07,12.89,12.89,0,0,1-3.12,1.76A15.16,15.16,0,0,1,426.92,369.39ZM438.61,362a4.92,4.92,0,0,1,1.93,1.28,6.78,6.78,0,0,1,1.31,2.16,6.74,6.74,0,0,0,4.34-2.79,9.62,9.62,0,0,0,1.57-5.66,16.69,16.69,0,0,0-.26-2.81,28,28,0,0,0-.83-3.31,31.68,31.68,0,0,1-3.23,5.42A54.86,54.86,0,0,1,438.61,362Z" transform="translate(-7.79 -322.41)"/><path class="cls-1" d="M494,367.77a12.28,12.28,0,0,1-3.75,2.09,13.23,13.23,0,0,1-4.4.73,7.74,7.74,0,0,1-4.11-.9,2.85,2.85,0,0,1-1.42-2.57,3.27,3.27,0,0,1,1.73-3,9.51,9.51,0,0,1,4.89-1,18.62,18.62,0,0,1,1.94.11c.67.08,1.42.21,2.27.39q1-2.19,5.12-13.48A129.16,129.16,0,0,1,505,330.71h-.12a12.56,12.56,0,0,0-5.75,1.62,26,26,0,0,0-6.17,4.65,37.35,37.35,0,0,0-7.43,10,22.38,22.38,0,0,0-2.75,10c0,.35,0,.93.09,1.73a1.42,1.42,0,0,0,0,.33,2.38,2.38,0,0,1-.8.36,3.93,3.93,0,0,1-1,.11,3.16,3.16,0,0,1-2.66-1.14,5.34,5.34,0,0,1-.9-3.37,25.53,25.53,0,0,1,2.94-11.36,35,35,0,0,1,7.92-10.42,29.57,29.57,0,0,1,8.67-5.55,26.33,26.33,0,0,1,9.67-1.72h1.09l.82-1.7a1.91,1.91,0,0,1,1.13-1,8.28,8.28,0,0,1,2.55-.29,4.19,4.19,0,0,1,1.66.26.84.84,0,0,1,.58.77,2.67,2.67,0,0,1-.25.85c-.17.4-.53,1.12-1.08,2.18A11.6,11.6,0,0,1,520.1,332a17.67,17.67,0,0,1,2.36,9.51,32.61,32.61,0,0,1-1.64,9.73,38.89,38.89,0,0,1-4.51,9.64,19.06,19.06,0,0,1-6.4,6.28,15.81,15.81,0,0,1-8.11,2.2A19.1,19.1,0,0,1,498,369,24,24,0,0,1,494,367.77Zm2.83-3.45c.63.06,1.18.11,1.66.14s.89,0,1.22,0a10.37,10.37,0,0,0,5.33-1.4,12.92,12.92,0,0,0,4.21-4.19,42.86,42.86,0,0,0,4.83-10.32,34.55,34.55,0,0,0,1.79-10.35,8.34,8.34,0,0,0-1.18-4.73,6.09,6.09,0,0,0-3.65-2.45,147.62,147.62,0,0,0-6.69,16.15A114.93,114.93,0,0,1,496.86,364.32Z" transform="translate(-7.79 -322.41)"/><path class="cls-1" d="M545.22,358.73a29.53,29.53,0,0,1-6.24,8.18,10.12,10.12,0,0,1-6.62,2.59,8.15,8.15,0,0,1-2.93-.47,4.26,4.26,0,0,1-2-1.38,12.93,12.93,0,0,1-3.36,1.22,24.28,24.28,0,0,1-4.41.52l1.18-4a15.11,15.11,0,0,0,2.9-.41,9.51,9.51,0,0,0,2.31-.91,12.72,12.72,0,0,1-.18-1.28c0-.44-.06-.92-.06-1.43a15.55,15.55,0,0,1,1.06-5.34,26.12,26.12,0,0,1,3-5.7,22.68,22.68,0,0,1,6.52-6.46,13.86,13.86,0,0,1,7.4-2.22,8.83,8.83,0,0,1,3.3.56,7.91,7.91,0,0,1,2.62,1.79l.41-1.32a3.48,3.48,0,0,1,.77-1.53,1.66,1.66,0,0,1,1.12-.33,8.47,8.47,0,0,1,3.54.7c1,.46,1.52,1,1.52,1.63a15.32,15.32,0,0,1-1.27,2.77c-.84,1.64-1.59,3.22-2.23,4.71a76.2,76.2,0,0,0-2.93,7.6,17.81,17.81,0,0,0-1,4.88,1.76,1.76,0,0,0,.74,1.63,9.41,9.41,0,0,0,3.35.69l-1.14,3.95h-.53q-4.62,0-6.51-1a3.38,3.38,0,0,1-1.88-3.29,11.06,11.06,0,0,1,.35-2.53C544.28,361.59,544.67,360.3,545.22,358.73Zm3-11.16a6.23,6.23,0,0,0-1.57-.91,4.59,4.59,0,0,0-1.58-.29,7.47,7.47,0,0,0-4,1.5,19.08,19.08,0,0,0-4.31,4.09,21.19,21.19,0,0,0-3,5.05,12.55,12.55,0,0,0-1.1,4.66,3.69,3.69,0,0,0,.5,2.14,1.76,1.76,0,0,0,1.53.69q2.88,0,6.33-4.3A59.88,59.88,0,0,0,548.22,347.57Z" transform="translate(-7.79 -322.41)"/><path class="cls-1" d="M561.32,367a29,29,0,0,1-4.45,1.65,20.28,20.28,0,0,1-4.26.74l1.14-4a14.22,14.22,0,0,0,3.37-.56,14.74,14.74,0,0,0,3.17-1.35,31,31,0,0,1,.79-6.11,65,65,0,0,1,2.36-7.75,44.12,44.12,0,0,1,3-6.89q1-1.56,2-1.56a8.63,8.63,0,0,1,3.47.54,1.75,1.75,0,0,1,1.18,1.64,12.52,12.52,0,0,1-1.26,3.28q-1.27,2.66-2,4.31a52.68,52.68,0,0,0-2.23,6.23,16.12,16.12,0,0,0-.65,4.25,2.61,2.61,0,0,0,.46,1.68,1.68,1.68,0,0,0,1.39.56c1.45,0,3.12-1.09,5-3.27a34.66,34.66,0,0,0,5.2-8.68,53.9,53.9,0,0,0,2.29-6.3q1.18-3.94,2.95-3.95a6.77,6.77,0,0,1,3,.63c.84.43,1.26,1,1.26,1.61a7.34,7.34,0,0,1-.7,2.21c-.36.8-.62,1.45-.8,1.94l-6.65,18.34a52.69,52.69,0,0,1,5.53-.74l.56-.06-1.14,4q-2.75.25-4.17.51a25.34,25.34,0,0,0-2.52.57q-2,7.09-4.51,10.54t-5.67,3.45a3.28,3.28,0,0,1-2.34-.77,2.94,2.94,0,0,1-.81-2.24,8.68,8.68,0,0,1,2.11-5.41,14.86,14.86,0,0,1,5.63-4.3c1-2.37,1.86-4.66,2.68-6.84s1.6-4.33,2.33-6.41a31,31,0,0,1-6.13,8.36,9.41,9.41,0,0,1-6.3,2.65,5.33,5.33,0,0,1-2.7-.7A3.48,3.48,0,0,1,561.32,367Z" transform="translate(-7.79 -322.41)"/></svg>