<svg id="logo" width="662" height="92" viewBox="0 0 662 92" fill="none" xmlns="http://www.w3.org/2000/svg">
  <path d="M42.4954 76.432C42.4954 73.744 42.9434 70.288 43.8394 66.064C44.7354 61.84 45.9194 57.328 47.3914 52.528C43.1674 52.848 38.9114 53.264 34.6234 53.776C30.3994 54.288 26.7194 54.576 23.5834 54.64C20.7034 61.36 18.3994 67.568 16.6714 73.264C15.0074 78.896 13.6954 84.4 12.7354 89.776C10.3034 89.2 8.28736 88.176 6.68736 86.704C5.08736 85.296 3.61536 83.504 2.27136 81.328C2.78336 80.304 3.35936 78.992 3.99936 77.392C4.70336 75.792 5.50336 73.872 6.39936 71.632C7.35936 69.328 8.41536 66.672 9.56736 63.664C10.7834 60.592 12.1594 57.04 13.6954 53.008C11.5834 52.112 10.1754 50.864 9.47136 49.264C9.79136 49.008 10.4954 48.752 11.5834 48.496C12.7354 48.176 14.1434 47.856 15.8074 47.536L17.0554 44.464C18.3994 41.008 19.4874 38.096 20.3194 35.728C21.2154 33.36 21.9514 31.056 22.5274 28.816C23.1674 26.512 23.7434 23.984 24.2554 21.232C24.8314 18.48 25.5034 14.992 26.2714 10.768C28.9594 11.28 31.3914 12.464 33.5674 14.32C35.8074 16.176 37.7274 18.416 39.3274 21.04C38.7514 21.808 38.0474 22.96 37.2154 24.496C36.3834 26.032 35.4554 27.888 34.4314 30.064C33.4714 32.176 32.4154 34.576 31.2634 37.264C30.1114 39.888 28.8634 42.672 27.5194 45.616C31.4874 45.104 35.4874 44.624 39.5194 44.176C43.6154 43.728 47.2314 43.408 50.3674 43.216C51.5194 39.888 52.7034 36.656 53.9194 33.52C55.1994 30.32 56.4474 27.408 57.6634 24.784C58.8794 22.16 60.0314 19.856 61.1194 17.872C62.2714 15.888 63.2954 14.416 64.1914 13.456C64.8314 13.52 65.6634 13.776 66.6874 14.224C67.7754 14.608 68.8634 15.088 69.9514 15.664C71.0394 16.24 72.0314 16.88 72.9274 17.584C73.8234 18.224 74.4314 18.832 74.7514 19.408C73.5994 20.496 72.4474 21.904 71.2954 23.632C70.1434 25.36 68.9914 27.344 67.8394 29.584C66.7514 31.824 65.6634 34.256 64.5754 36.88C63.4874 39.504 62.4634 42.224 61.5034 45.04C62.7834 46.192 63.4234 47.632 63.4234 49.36C63.4234 50.576 63.1674 51.696 62.6554 52.72C62.0794 52.592 61.5034 52.528 60.9274 52.528C60.3514 52.464 59.7434 52.4 59.1034 52.336C58.0154 55.792 57.0234 59.216 56.1274 62.608C55.2314 66 54.4634 69.232 53.8234 72.304C53.2474 75.376 52.7674 78.192 52.3834 80.752C52.0634 83.312 51.9034 85.456 51.9034 87.184C51.9034 87.824 51.9034 88.336 51.9034 88.72C51.9674 89.104 52.0314 89.424 52.0954 89.68C50.6874 89.616 49.6634 89.36 49.0234 88.912C48.3834 88.528 47.9034 88.08 47.5834 87.568C47.2634 87.12 46.9754 86.64 46.7194 86.128C46.4634 85.68 46.0474 85.328 45.4714 85.072C45.0234 84.88 44.6074 84.432 44.2234 83.728C43.8394 83.024 43.5194 82.224 43.2634 81.328C43.0074 80.432 42.8154 79.536 42.6874 78.64C42.5594 77.744 42.4954 77.008 42.4954 76.432Z" stroke="white" stroke-width="3" />
  <path d="M100.51 43.216C101.15 43.216 101.886 43.344 102.718 43.6C103.614 43.792 104.414 44.08 105.118 44.464C105.822 44.784 106.398 45.136 106.846 45.52C107.358 45.904 107.614 46.256 107.614 46.576C106.334 49.264 105.15 51.984 104.062 54.736C102.974 57.424 102.046 60.016 101.278 62.512C100.51 65.008 99.9021 67.344 99.4541 69.52C99.0701 71.696 98.8781 73.584 98.8781 75.184C98.8781 76.976 99.0701 78.48 99.4541 79.696C99.8381 80.848 100.478 81.68 101.374 82.192C100.606 82.704 99.6141 83.12 98.3981 83.44C97.1821 83.76 96.0941 83.92 95.1341 83.92C91.6781 83.92 89.9501 81.552 89.9501 76.816C89.9501 73.168 91.1661 68.176 93.5981 61.84C92.3181 64.784 90.8461 67.568 89.1821 70.192C87.5181 72.752 85.8221 75.024 84.0941 77.008C82.3661 78.992 80.6061 80.624 78.8141 81.904C77.0861 83.12 75.4861 83.856 74.0141 84.112C71.6461 83.984 69.7261 82.864 68.2541 80.752C66.7821 78.576 66.0461 75.824 66.0461 72.496C66.0461 68.912 66.8141 65.136 68.3501 61.168C69.8861 57.2 71.8381 53.52 74.2061 50.128C76.6381 46.736 79.2621 43.92 82.0781 41.68C84.8941 39.376 87.6141 38.16 90.2381 38.032C90.8781 38.224 91.5821 38.608 92.3501 39.184C93.1821 39.76 93.9501 40.432 94.6541 41.2C95.4221 41.968 96.0621 42.768 96.5741 43.6C97.0861 44.368 97.3741 45.04 97.4381 45.616C94.8781 46 92.2221 47.248 89.4701 49.36C86.7821 51.472 84.3181 54.032 82.0781 57.04C79.9021 59.984 78.1101 63.152 76.7021 66.544C75.2941 69.936 74.5901 73.104 74.5901 76.048C74.5901 77.264 75.0381 78.032 75.9341 78.352C77.7901 77.968 79.9341 76.4 82.3661 73.648C84.7981 70.832 87.7421 66.512 91.1981 60.688C91.8381 59.536 92.5421 58.256 93.3101 56.848C94.1421 55.44 94.9741 53.968 95.8061 52.432C96.6381 50.896 97.4381 49.36 98.2061 47.824C99.0381 46.224 99.8061 44.688 100.51 43.216Z" stroke="white" stroke-width="3" />
  <path d="M120.566 82.672C123.51 80.688 126.39 78.16 129.206 75.088C132.022 71.952 134.582 68.592 136.886 65.008C139.19 61.36 141.142 57.584 142.742 53.68C144.342 49.776 145.43 46.032 146.006 42.448C146.006 41.68 145.59 41.168 144.758 40.912C143.862 40.912 142.614 41.712 141.014 43.312C139.478 44.848 137.75 46.832 135.83 49.264C133.974 51.696 132.054 54.416 130.07 57.424C128.15 60.432 126.39 63.44 124.79 66.448C123.19 69.392 121.814 72.176 120.662 74.8C119.574 77.36 118.966 79.44 118.838 81.04C118.198 81.04 117.654 80.4 117.206 79.12C117.078 78.8 116.854 78.48 116.534 78.16C116.214 77.776 115.702 77.328 114.998 76.816C114.678 76.56 114.358 76.272 114.038 75.952C113.718 75.568 113.494 75.248 113.366 74.992C113.11 74.48 112.982 73.648 112.982 72.496C112.982 68.72 113.462 64.464 114.422 59.728C115.382 54.992 116.63 50.16 118.166 45.232C119.766 40.304 121.622 35.472 123.734 30.736C125.846 25.936 128.022 21.552 130.262 17.584C132.566 13.616 134.87 10.256 137.174 7.50399C139.478 4.75198 141.654 2.92798 143.702 2.03198C144.342 2.22398 145.11 2.54399 146.006 2.99199C146.902 3.43999 147.798 3.95198 148.694 4.52798C149.59 5.10398 150.422 5.67999 151.19 6.25599C152.022 6.83199 152.63 7.34398 153.014 7.79198C145.974 13.488 139.862 20.816 134.678 29.776C129.558 38.672 125.366 49.2 122.102 61.36C123.894 58.032 125.91 54.832 128.15 51.76C130.39 48.624 132.598 45.872 134.774 43.504C137.014 41.136 139.126 39.248 141.11 37.84C143.158 36.432 144.854 35.728 146.198 35.728C147.222 35.984 148.214 36.432 149.174 37.072C150.134 37.712 150.998 38.512 151.766 39.472C152.534 40.368 153.174 41.36 153.686 42.448C154.198 43.472 154.518 44.56 154.646 45.712C154.582 48.4 154.102 51.28 153.206 54.352C152.374 57.36 151.222 60.336 149.75 63.28C148.342 66.224 146.71 69.04 144.854 71.728C143.062 74.416 141.142 76.784 139.094 78.832C137.11 80.816 135.094 82.416 133.046 83.632C131.062 84.848 129.174 85.456 127.382 85.456C126.614 85.456 125.814 85.36 124.982 85.168C124.214 85.04 123.478 84.816 122.774 84.496C122.134 84.24 121.59 83.952 121.142 83.632C120.758 83.312 120.566 82.992 120.566 82.672Z" stroke="white" stroke-width="3" />
  <path d="M157.111 75.568C157.111 74.992 157.143 74.288 157.207 73.456C157.335 72.56 157.527 71.408 157.783 70C158.039 68.528 158.359 66.768 158.743 64.72C159.191 62.672 159.735 60.208 160.375 57.328C160.503 56.688 160.791 55.664 161.239 54.256C161.687 52.848 162.263 51.376 162.967 49.84C163.735 48.24 164.631 46.704 165.655 45.232C166.743 43.76 168.023 42.672 169.495 41.968C170.583 42.224 172.023 42.896 173.815 43.984C175.607 45.008 177.143 46.448 178.423 48.304C176.951 49.968 175.703 51.632 174.679 53.296C173.719 54.96 172.823 56.688 171.991 58.48C171.223 60.272 170.487 62.128 169.783 64.048C169.143 65.968 168.407 67.984 167.575 70.096C166.871 71.888 166.231 73.744 165.655 75.664C165.079 77.52 164.759 79.152 164.695 80.56C164.695 81.712 164.663 82.512 164.599 82.96C164.599 83.472 164.439 83.728 164.119 83.728C163.863 83.728 163.351 83.568 162.583 83.248C161.815 82.928 161.015 82.448 160.183 81.808C159.415 81.104 158.711 80.24 158.071 79.216C157.431 78.192 157.111 76.976 157.111 75.568ZM175.447 33.904C175.447 33.52 175.543 32.944 175.735 32.176C175.415 31.856 175.127 31.376 174.871 30.736C174.679 30.096 174.583 29.52 174.583 29.008C174.583 28.432 174.647 27.664 174.775 26.704C174.967 25.68 175.191 24.592 175.447 23.44C175.703 22.288 176.023 21.104 176.407 19.888C176.791 18.608 177.175 17.456 177.559 16.432C178.327 16.432 179.255 16.656 180.343 17.104C181.495 17.488 182.647 18.032 183.799 18.736C184.951 19.376 186.007 20.112 186.967 20.944C187.927 21.712 188.663 22.448 189.175 23.152C188.471 23.856 187.543 24.848 186.391 26.128C185.239 27.344 184.119 28.656 183.031 30.064C181.943 31.408 180.951 32.688 180.055 33.904C179.159 35.12 178.583 35.984 178.327 36.496C177.559 36.368 176.887 36.048 176.311 35.536C175.735 34.96 175.447 34.416 175.447 33.904Z" stroke="white" stroke-width="3" />
  <path d="M188.535 82.672C191.479 80.688 194.359 78.16 197.175 75.088C199.991 71.952 202.551 68.592 204.855 65.008C207.159 61.36 209.111 57.584 210.711 53.68C212.311 49.776 213.399 46.032 213.975 42.448C213.975 41.68 213.559 41.168 212.727 40.912C211.831 40.912 210.583 41.712 208.983 43.312C207.447 44.848 205.719 46.832 203.799 49.264C201.943 51.696 200.023 54.416 198.039 57.424C196.119 60.432 194.359 63.44 192.759 66.448C191.159 69.392 189.783 72.176 188.631 74.8C187.543 77.36 186.935 79.44 186.807 81.04C186.167 81.04 185.623 80.4 185.175 79.12C185.047 78.8 184.823 78.48 184.503 78.16C184.183 77.776 183.671 77.328 182.967 76.816C182.647 76.56 182.327 76.272 182.007 75.952C181.687 75.568 181.463 75.248 181.335 74.992C181.079 74.48 180.951 73.648 180.951 72.496C180.951 68.72 181.431 64.464 182.391 59.728C183.351 54.992 184.599 50.16 186.135 45.232C187.735 40.304 189.591 35.472 191.703 30.736C193.815 25.936 195.991 21.552 198.231 17.584C200.535 13.616 202.839 10.256 205.143 7.50399C207.447 4.75198 209.623 2.92798 211.671 2.03198C212.311 2.22398 213.079 2.54399 213.975 2.99199C214.871 3.43999 215.767 3.95198 216.663 4.52798C217.559 5.10398 218.391 5.67999 219.159 6.25599C219.991 6.83199 220.599 7.34398 220.983 7.79198C213.943 13.488 207.831 20.816 202.647 29.776C197.527 38.672 193.335 49.2 190.071 61.36C191.863 58.032 193.879 54.832 196.119 51.76C198.359 48.624 200.567 45.872 202.743 43.504C204.983 41.136 207.095 39.248 209.079 37.84C211.127 36.432 212.823 35.728 214.167 35.728C215.191 35.984 216.183 36.432 217.143 37.072C218.103 37.712 218.967 38.512 219.735 39.472C220.503 40.368 221.143 41.36 221.655 42.448C222.167 43.472 222.487 44.56 222.615 45.712C222.551 48.4 222.071 51.28 221.175 54.352C220.343 57.36 219.191 60.336 217.719 63.28C216.311 66.224 214.679 69.04 212.823 71.728C211.031 74.416 209.111 76.784 207.063 78.832C205.079 80.816 203.063 82.416 201.015 83.632C199.031 84.848 197.143 85.456 195.351 85.456C194.583 85.456 193.783 85.36 192.951 85.168C192.183 85.04 191.447 84.816 190.743 84.496C190.103 84.24 189.559 83.952 189.111 83.632C188.727 83.312 188.535 82.992 188.535 82.672Z" stroke="white" stroke-width="3" />
  <path d="M251.096 79.888C249.88 78.864 249.048 77.584 248.6 76.048C248.216 74.512 248.024 73.2 248.024 72.112C248.024 70.768 248.184 69.616 248.504 68.656C248.248 68.656 247.672 69.168 246.776 70.192C245.88 71.216 244.888 72.432 243.8 73.84C242.776 75.248 241.752 76.624 240.728 77.968C239.704 79.312 238.936 80.304 238.424 80.944C237.592 81.84 236.792 82.544 236.024 83.056C235.32 83.568 234.744 83.856 234.296 83.92C233.272 83.856 232.184 83.632 231.032 83.248C229.944 82.928 228.888 82.448 227.864 81.808C226.904 81.168 226.04 80.4 225.272 79.504C224.568 78.608 224.088 77.584 223.832 76.432C223.832 74.64 223.864 73.168 223.928 72.016C224.056 70.864 224.28 69.616 224.6 68.272C225.176 65.84 226.008 63.088 227.096 60.016C228.248 56.944 229.56 53.936 231.032 50.992C232.504 47.984 234.136 45.2 235.928 42.64C237.784 40.016 239.736 37.968 241.784 36.496C242.36 36.496 243.032 36.56 243.8 36.688C244.568 36.752 245.336 36.912 246.104 37.168C246.936 37.424 247.704 37.744 248.408 38.128C249.176 38.448 249.816 38.896 250.328 39.472C249.752 40.112 248.28 42.256 245.912 45.904C243.608 49.552 241.016 54.8 238.136 61.648C237.816 62.352 237.432 63.376 236.984 64.72C236.536 66.064 236.088 67.472 235.64 68.944C235.192 70.416 234.808 71.856 234.488 73.264C234.232 74.672 234.104 75.792 234.104 76.624C234.104 77.136 234.168 77.52 234.296 77.776C234.488 78.032 234.648 78.224 234.776 78.352C235.736 77.968 236.952 76.912 238.424 75.184C239.896 73.456 241.944 70.8 244.568 67.216C245.208 66.32 245.944 65.296 246.776 64.144C247.672 62.992 248.568 61.776 249.464 60.496C250.36 59.152 251.192 57.776 251.96 56.368C252.792 54.96 253.464 53.552 253.976 52.144C254.232 51.376 254.552 50.48 254.936 49.456C255.384 48.368 255.896 47.248 256.472 46.096C257.112 44.944 257.816 43.792 258.584 42.64C259.416 41.424 260.376 40.304 261.464 39.28C262.296 39.28 263.192 39.376 264.152 39.568C265.112 39.76 266.008 40.016 266.84 40.336C267.736 40.592 268.504 40.912 269.144 41.296C269.784 41.616 270.264 41.968 270.584 42.352C269.432 45.168 268.152 47.952 266.744 50.704C265.336 53.456 264.024 56.176 262.808 58.864C261.592 61.488 260.568 64.112 259.736 66.736C258.904 69.36 258.488 71.92 258.488 74.416C258.488 75.76 258.584 76.944 258.776 77.968C259.032 78.928 259.288 79.76 259.544 80.464C259.8 81.104 260.024 81.648 260.216 82.096C260.472 82.544 260.6 82.928 260.6 83.248C260.6 83.312 260.536 83.408 260.408 83.536C260.344 83.6 260.28 83.632 260.216 83.632C259.768 83.632 259.192 83.536 258.488 83.344C257.784 83.152 256.984 82.864 256.088 82.48C255.256 82.16 254.392 81.776 253.496 81.328C252.664 80.88 251.864 80.4 251.096 79.888Z" stroke="white" stroke-width="3" />
  <path d="M270.117 80.08C270.437 78.224 270.981 75.792 271.749 72.784C272.581 69.712 273.541 66.48 274.629 63.088C275.717 59.632 276.869 56.176 278.085 52.72C279.301 49.264 280.485 46.16 281.637 43.408C282.469 41.424 283.205 39.888 283.845 38.8C284.485 37.648 285.189 36.688 285.957 35.92C286.853 36.048 287.781 36.272 288.741 36.592C289.701 36.912 290.629 37.296 291.525 37.744C292.421 38.192 293.221 38.672 293.925 39.184C294.629 39.632 295.173 40.08 295.557 40.528C293.829 42.576 292.293 44.912 290.949 47.536C289.669 50.16 288.357 53.52 287.013 57.616C290.469 54.544 293.509 51.6 296.133 48.784C298.821 45.968 301.317 42.832 303.621 39.376C304.005 39.056 304.677 38.896 305.637 38.896C306.533 38.896 307.397 39.056 308.229 39.376C309.061 39.632 309.637 40.016 309.957 40.528C308.805 43.6 308.229 46.64 308.229 49.648C308.229 52.464 308.645 54.576 309.477 55.984C309.413 56.368 308.965 57.104 308.133 58.192C307.365 59.28 306.501 60.304 305.541 61.264C303.813 60.368 302.277 59.152 300.933 57.616C299.589 56.016 298.597 54.288 297.957 52.432C294.949 54.544 292.389 56.624 290.277 58.672C288.165 60.656 286.341 62.896 284.805 65.392C283.333 67.824 282.053 70.64 280.965 73.84C279.941 77.04 278.949 80.848 277.989 85.264C277.413 85.2 276.709 84.976 275.877 84.592C275.109 84.272 274.309 83.856 273.477 83.344C272.709 82.832 272.005 82.288 271.365 81.712C270.725 81.136 270.309 80.592 270.117 80.08Z" stroke="white" stroke-width="3" />
  <path d="M399.679 29.104C399.679 32.176 398.975 35.088 397.567 37.84C396.223 40.528 394.335 42.96 391.903 45.136C389.471 47.248 386.623 49.04 383.359 50.512C380.095 51.984 376.543 52.976 372.703 53.488C373.663 56.368 374.815 59.344 376.159 62.416C377.567 65.424 379.071 68.336 380.671 71.152C382.271 73.968 383.935 76.56 385.663 78.928C387.391 81.296 389.087 83.248 390.751 84.784C390.431 85.424 389.951 86.064 389.311 86.704C388.735 87.344 388.031 87.92 387.199 88.432C386.431 89.008 385.599 89.456 384.703 89.776C383.871 90.16 383.071 90.352 382.303 90.352C380.895 90.352 379.551 89.68 378.271 88.336C376.991 86.992 375.679 84.88 374.335 82C373.055 79.056 371.679 75.28 370.207 70.672C368.799 66 367.231 60.4 365.503 53.872C364.799 53.872 364.095 53.872 363.391 53.872C362.687 53.872 362.143 53.808 361.759 53.68C361.311 53.424 360.831 52.976 360.319 52.336C358.591 56.048 357.055 59.536 355.711 62.8C354.367 66.064 353.151 69.232 352.063 72.304C351.039 75.312 350.111 78.256 349.279 81.136C348.511 83.952 347.839 86.832 347.263 89.776C345.087 89.264 343.199 88.336 341.599 86.992C339.999 85.648 338.495 83.76 337.087 81.328C337.343 80.752 337.599 80.208 337.855 79.696C338.175 79.12 338.559 78.352 339.007 77.392C339.455 76.368 339.999 75.088 340.639 73.552C341.343 72.016 342.239 69.968 343.327 67.408C344.479 64.848 345.823 61.712 347.359 58C348.959 54.288 350.879 49.776 353.119 44.464C354.143 42.096 355.007 40.016 355.711 38.224C356.479 36.432 357.151 34.736 357.727 33.136C358.303 31.472 358.815 29.84 359.263 28.24C359.775 26.576 360.287 24.688 360.799 22.576C357.855 23.6 355.103 24.752 352.543 26.032C350.047 27.248 347.967 28.56 346.303 29.968C345.727 29.584 345.119 29.008 344.479 28.24C343.903 27.472 343.359 26.64 342.847 25.744C342.335 24.784 341.887 23.824 341.503 22.864C341.119 21.904 340.895 21.04 340.831 20.272C342.751 18.992 345.087 17.808 347.839 16.72C350.655 15.632 353.631 14.704 356.767 13.936C359.903 13.104 363.103 12.464 366.367 12.016C369.631 11.568 372.671 11.344 375.487 11.344C383.167 11.344 389.119 12.944 393.343 16.144C397.567 19.28 399.679 23.6 399.679 29.104ZM376.255 21.04C375.807 21.616 375.103 22.768 374.143 24.496C373.183 26.224 372.063 28.304 370.783 30.736C369.567 33.104 368.255 35.696 366.847 38.512C365.503 41.328 364.191 44.112 362.911 46.864C367.711 46.864 372.127 46.416 376.159 45.52C380.191 44.624 383.679 43.376 386.623 41.776C389.567 40.112 391.839 38.192 393.439 36.016C395.103 33.776 395.935 31.312 395.935 28.624C395.935 25.424 394.783 22.992 392.479 21.328C390.175 19.6 386.623 18.736 381.823 18.736C380.735 18.736 379.647 18.8 378.559 18.928C377.471 18.992 376.319 19.088 375.103 19.216L376.255 21.04Z" stroke="white" stroke-width="3" />
  <path d="M430.041 43.216C430.681 43.216 431.417 43.344 432.249 43.6C433.145 43.792 433.945 44.08 434.649 44.464C435.353 44.784 435.929 45.136 436.377 45.52C436.889 45.904 437.145 46.256 437.145 46.576C435.865 49.264 434.681 51.984 433.593 54.736C432.505 57.424 431.577 60.016 430.809 62.512C430.041 65.008 429.433 67.344 428.985 69.52C428.601 71.696 428.409 73.584 428.409 75.184C428.409 76.976 428.601 78.48 428.985 79.696C429.369 80.848 430.009 81.68 430.905 82.192C430.137 82.704 429.145 83.12 427.929 83.44C426.713 83.76 425.625 83.92 424.665 83.92C421.209 83.92 419.481 81.552 419.481 76.816C419.481 73.168 420.697 68.176 423.129 61.84C421.849 64.784 420.377 67.568 418.713 70.192C417.049 72.752 415.353 75.024 413.625 77.008C411.897 78.992 410.137 80.624 408.345 81.904C406.617 83.12 405.017 83.856 403.545 84.112C401.177 83.984 399.257 82.864 397.785 80.752C396.313 78.576 395.577 75.824 395.577 72.496C395.577 68.912 396.345 65.136 397.881 61.168C399.417 57.2 401.369 53.52 403.737 50.128C406.169 46.736 408.793 43.92 411.609 41.68C414.425 39.376 417.145 38.16 419.769 38.032C420.409 38.224 421.113 38.608 421.881 39.184C422.713 39.76 423.481 40.432 424.185 41.2C424.953 41.968 425.593 42.768 426.105 43.6C426.617 44.368 426.905 45.04 426.969 45.616C424.409 46 421.753 47.248 419.001 49.36C416.313 51.472 413.849 54.032 411.609 57.04C409.433 59.984 407.641 63.152 406.233 66.544C404.825 69.936 404.121 73.104 404.121 76.048C404.121 77.264 404.569 78.032 405.465 78.352C407.321 77.968 409.465 76.4 411.897 73.648C414.329 70.832 417.273 66.512 420.729 60.688C421.369 59.536 422.073 58.256 422.841 56.848C423.673 55.44 424.505 53.968 425.337 52.432C426.169 50.896 426.969 49.36 427.737 47.824C428.569 46.224 429.337 44.688 430.041 43.216Z" stroke="white" stroke-width="3" />
  <path d="M441.919 80.368C441.919 78.128 442.143 75.504 442.591 72.496C443.039 69.424 443.679 66.16 444.511 62.704C445.407 59.248 446.431 55.632 447.583 51.856C448.799 48.08 450.143 44.304 451.615 40.528C452.895 37.136 454.367 33.712 456.031 30.256C457.759 26.8 459.615 23.408 461.599 20.08C463.583 16.752 465.631 13.584 467.743 10.576C469.919 7.56799 472.095 4.81599 474.271 2.31998C475.295 2.31998 476.383 2.44798 477.535 2.70399C478.751 2.95999 479.903 3.31199 480.991 3.75998C482.143 4.14399 483.167 4.62399 484.063 5.19999C485.023 5.77599 485.791 6.35199 486.367 6.92798C481.567 11.856 477.247 16.848 473.407 21.904C469.567 26.896 466.527 31.6 464.287 36.016C463.071 38.448 461.951 40.72 460.927 42.832C459.967 44.944 459.071 47.056 458.239 49.168C457.407 51.216 456.639 53.296 455.935 55.408C455.295 57.456 454.687 59.632 454.111 61.936C466.399 46.256 475.519 38.416 481.471 38.416C483.135 38.416 484.927 38.96 486.847 40.048C488.767 41.136 490.463 42.608 491.935 44.464C489.951 46.64 487.903 49.264 485.791 52.336C483.679 55.408 481.727 58.512 479.935 61.648C478.207 64.72 476.767 67.6 475.615 70.288C474.527 72.912 473.983 74.864 473.983 76.144C473.983 76.784 474.079 77.232 474.271 77.488C474.463 77.68 474.879 77.776 475.519 77.776C476.479 77.776 477.247 77.648 477.823 77.392C478.399 77.136 478.751 77.008 478.879 77.008C479.199 77.52 479.391 77.872 479.455 78.064C479.519 78.256 479.551 78.416 479.551 78.544C479.551 78.8 479.167 79.184 478.399 79.696C477.631 80.144 476.703 80.624 475.615 81.136C474.591 81.584 473.567 82 472.543 82.384C471.519 82.768 470.751 82.96 470.239 82.96C469.599 82.96 468.959 82.768 468.319 82.384C467.679 82.064 467.103 81.616 466.591 81.04C466.143 80.464 465.759 79.824 465.439 79.12C465.183 78.416 465.055 77.68 465.055 76.912C465.055 75.952 465.311 74.544 465.823 72.688C466.399 70.768 467.167 68.56 468.127 66.064C469.087 63.504 470.239 60.72 471.583 57.712C472.927 54.704 474.367 51.632 475.903 48.496C475.903 48.24 475.775 48.112 475.519 48.112C475.327 48.112 474.815 48.368 473.983 48.88C473.215 49.392 472.479 49.904 471.775 50.416C469.471 52.144 467.135 54.288 464.767 56.848C462.463 59.344 460.191 62.096 457.951 65.104C455.775 68.112 453.695 71.312 451.711 74.704C449.791 78.032 448.127 81.392 446.719 84.784C446.527 85.232 446.239 85.648 445.855 86.032C445.471 86.416 445.151 86.608 444.895 86.608C444.703 86.608 444.415 86.384 444.031 85.936C443.711 85.488 443.391 84.912 443.071 84.208C442.815 83.568 442.559 82.896 442.303 82.192C442.047 81.488 441.919 80.88 441.919 80.368Z" stroke="white" stroke-width="3" />
  <path d="M547.097 52.528C546.073 52.592 544.825 53.264 543.353 54.544C541.881 55.76 540.281 57.36 538.553 59.344C536.889 61.264 535.129 63.408 533.273 65.776C531.481 68.144 529.721 70.512 527.993 72.88C526.329 75.184 524.761 77.36 523.289 79.408C521.817 81.456 520.569 83.088 519.545 84.304C518.137 83.728 516.921 82.896 515.897 81.808C514.873 80.656 514.137 79.248 513.689 77.584C514.009 75.6 514.457 73.552 515.033 71.44C515.609 69.264 516.345 67.024 517.241 64.72C518.201 62.416 519.353 60.016 520.697 57.52C522.105 54.96 523.801 52.272 525.785 49.456C524.825 49.52 523.513 50.224 521.849 51.568C520.185 52.848 518.393 54.544 516.473 56.656C514.553 58.704 512.569 61.04 510.521 63.664C508.473 66.224 506.553 68.752 504.761 71.248C502.393 74.576 500.409 77.488 498.809 79.984C497.273 82.48 496.153 83.952 495.449 84.4C493.785 83.184 492.633 81.872 491.993 80.464C491.353 79.056 490.873 77.488 490.553 75.76C490.617 74.224 490.841 72.304 491.225 70C491.673 67.696 492.281 65.328 493.049 62.896C494.521 58.224 496.409 53.584 498.713 48.976C501.081 44.368 503.353 40.144 505.529 36.304C507.321 36.688 508.921 37.296 510.329 38.128C511.801 38.96 513.337 40.176 514.937 41.776C514.297 43.76 513.305 45.872 511.961 48.112C510.617 50.288 509.209 52.592 507.737 55.024C506.265 57.456 504.921 59.952 503.705 62.512C502.489 65.072 501.689 67.664 501.305 70.288C503.097 67.728 505.209 64.784 507.641 61.456C510.137 58.128 512.665 54.992 515.225 52.048C517.849 49.104 520.441 46.608 523.001 44.56C525.561 42.512 527.865 41.488 529.913 41.488C530.681 41.488 531.513 41.616 532.409 41.872C533.305 42.128 534.137 42.448 534.905 42.832C535.673 43.216 536.313 43.6 536.825 43.984C537.337 44.304 537.625 44.56 537.689 44.752C537.369 46.032 536.601 47.792 535.385 50.032C534.233 52.208 532.985 54.512 531.641 56.944C530.297 59.376 529.049 61.744 527.897 64.048C526.745 66.288 526.073 68.08 525.881 69.424C529.017 65.136 531.961 61.264 534.713 57.808C537.465 54.288 540.057 51.28 542.489 48.784C544.921 46.288 547.161 44.368 549.209 43.024C551.321 41.68 553.305 41.008 555.161 41.008C556.441 41.008 557.625 41.36 558.713 42.064C559.865 42.704 560.665 43.664 561.113 44.944C560.537 46.864 559.577 49.168 558.233 51.856C556.953 54.544 555.641 57.392 554.297 60.4C552.953 63.344 551.737 66.256 550.649 69.136C549.625 72.016 549.113 74.608 549.113 76.912C549.113 78.256 549.305 79.152 549.689 79.6C550.073 79.984 550.617 80.176 551.321 80.176C552.089 80.176 552.793 80.048 553.433 79.792C554.137 79.472 554.649 79.312 554.969 79.312C555.353 79.568 555.577 79.888 555.641 80.272C555.705 80.656 555.737 81.008 555.737 81.328C554.457 82.352 553.145 83.184 551.801 83.824C550.457 84.528 548.953 84.88 547.289 84.88C545.753 84.88 544.473 84.624 543.449 84.112C542.489 83.6 541.689 82.896 541.049 82C540.409 81.104 539.961 80.08 539.705 78.928C539.449 77.776 539.321 76.528 539.321 75.184C539.321 73.008 539.609 70.864 540.185 68.752C540.761 66.576 541.433 64.528 542.201 62.608C543.033 60.624 543.897 58.8 544.793 57.136C545.689 55.408 546.457 53.872 547.097 52.528Z" stroke="white" stroke-width="3" />
  <path d="M598.135 43.216C598.775 43.216 599.511 43.344 600.343 43.6C601.239 43.792 602.039 44.08 602.743 44.464C603.447 44.784 604.023 45.136 604.471 45.52C604.983 45.904 605.239 46.256 605.239 46.576C603.959 49.264 602.775 51.984 601.687 54.736C600.599 57.424 599.671 60.016 598.903 62.512C598.135 65.008 597.527 67.344 597.079 69.52C596.695 71.696 596.503 73.584 596.503 75.184C596.503 76.976 596.695 78.48 597.079 79.696C597.463 80.848 598.103 81.68 598.999 82.192C598.231 82.704 597.239 83.12 596.023 83.44C594.807 83.76 593.719 83.92 592.759 83.92C589.303 83.92 587.575 81.552 587.575 76.816C587.575 73.168 588.791 68.176 591.223 61.84C589.943 64.784 588.471 67.568 586.807 70.192C585.143 72.752 583.447 75.024 581.719 77.008C579.991 78.992 578.231 80.624 576.439 81.904C574.711 83.12 573.111 83.856 571.639 84.112C569.271 83.984 567.351 82.864 565.879 80.752C564.407 78.576 563.671 75.824 563.671 72.496C563.671 68.912 564.439 65.136 565.975 61.168C567.511 57.2 569.463 53.52 571.831 50.128C574.263 46.736 576.887 43.92 579.703 41.68C582.519 39.376 585.239 38.16 587.863 38.032C588.503 38.224 589.207 38.608 589.975 39.184C590.807 39.76 591.575 40.432 592.279 41.2C593.047 41.968 593.687 42.768 594.199 43.6C594.711 44.368 594.999 45.04 595.063 45.616C592.503 46 589.847 47.248 587.095 49.36C584.407 51.472 581.943 54.032 579.703 57.04C577.527 59.984 575.735 63.152 574.327 66.544C572.919 69.936 572.215 73.104 572.215 76.048C572.215 77.264 572.663 78.032 573.559 78.352C575.415 77.968 577.559 76.4 579.991 73.648C582.423 70.832 585.367 66.512 588.823 60.688C589.463 59.536 590.167 58.256 590.935 56.848C591.767 55.44 592.599 53.968 593.431 52.432C594.263 50.896 595.063 49.36 595.831 47.824C596.663 46.224 597.431 44.688 598.135 43.216Z" stroke="white" stroke-width="3" />
  <path d="M625.661 35.44C627.325 35.952 628.893 37.104 630.365 38.896C631.837 40.624 632.925 42.544 633.629 44.656C632.925 46.384 631.837 48.464 630.365 50.896C628.893 53.328 627.421 55.824 625.949 58.384C624.477 60.88 623.133 63.28 621.917 65.584C620.765 67.824 620.093 69.68 619.901 71.152C620.925 70.064 622.045 68.816 623.261 67.408C624.541 65.936 625.757 64.496 626.909 63.088C628.125 61.616 629.245 60.304 630.269 59.152C631.293 57.936 632.093 57.04 632.669 56.464C633.885 55.184 635.325 53.712 636.989 52.048C638.653 50.32 640.381 48.72 642.173 47.248C644.029 45.712 645.885 44.432 647.741 43.408C649.597 42.32 651.293 41.776 652.829 41.776C654.493 41.776 655.869 42.352 656.957 43.504C658.109 44.592 659.005 45.744 659.645 46.96C659.645 47.088 659.389 47.28 658.877 47.536C658.429 47.728 657.757 48.336 656.861 49.36C655.965 50.512 654.941 52.112 653.789 54.16C652.701 56.144 651.613 58.32 650.525 60.688C649.501 62.992 648.637 65.36 647.933 67.792C647.229 70.224 646.877 72.432 646.877 74.416C646.877 76.016 647.069 77.04 647.453 77.488C647.901 77.936 648.509 78.16 649.277 78.16C649.981 78.16 650.717 78 651.485 77.68C652.253 77.36 652.861 77.2 653.309 77.2C653.565 77.328 653.757 77.616 653.885 78.064C654.077 78.448 654.173 78.8 654.173 79.12C653.661 79.568 653.053 80.016 652.349 80.464C651.645 80.912 650.909 81.328 650.141 81.712C649.373 82.096 648.605 82.416 647.837 82.672C647.133 82.928 646.493 83.056 645.917 83.056C644.061 83.056 642.525 82.768 641.309 82.192C640.157 81.68 639.229 80.976 638.525 80.08C637.885 79.184 637.437 78.128 637.181 76.912C636.925 75.632 636.797 74.288 636.797 72.88C636.797 72.112 636.861 71.248 636.989 70.288C637.117 69.328 637.373 68.208 637.757 66.928C638.141 65.584 638.685 64.016 639.389 62.224C640.093 60.368 640.989 58.16 642.077 55.6C641.949 55.6 641.085 56.048 639.485 56.944C637.885 57.84 636.157 59.216 634.301 61.072C631.293 63.952 628.573 66.8 626.141 69.616C623.773 72.432 621.341 75.568 618.845 79.024C617.437 81.008 616.189 82.672 615.101 84.016C614.077 85.424 613.181 86.352 612.413 86.8C611.069 86.032 610.077 84.944 609.437 83.536C608.797 82.192 608.317 80.784 607.997 79.312C607.997 78.096 608.157 76.56 608.477 74.704C608.861 72.848 609.341 70.8 609.917 68.56C610.557 66.256 611.325 63.856 612.221 61.36C613.117 58.864 614.109 56.368 615.197 53.872C617.629 48.24 619.837 43.824 621.821 40.624C623.869 37.424 625.149 35.696 625.661 35.44Z" stroke="white" stroke-width="3" />
</svg>